<?xml version="1.0" encoding="UTF-8"?>
<svg width="990px" height="882px" viewBox="0 0 990 882" version="1.1" xmlns="http://www.w3.org/2000/svg" xmlns:xlink="http://www.w3.org/1999/xlink">
    <!-- Generator: Sketch 48.2 (47327) - http://www.bohemiancoding.com/sketch -->
    <title>ChargedParticles_Pink_Transparent</title>
    <desc>Created with Sketch.</desc>
    <defs></defs>
    <g id="Page-1" stroke="none" stroke-width="1" fill="none" fill-rule="evenodd">
        <g id="ChargedParticles_Pink_Transparent" fill-rule="nonzero">
            <g id="Group-2">
                <g id="ETH-Logo" transform="translate(396.000000, 282.000000)" fill="#FFFFFF">
                    <polygon id="Shape" points="98.302 118.178 0.397 162.63 98.302 220.433 196.226 162.63"></polygon>
                    <polygon id="Shape" points="0.433 162.63 98.338 220.434 98.338 118.178 98.338 0.38"></polygon>
                    <polygon id="Shape" points="98.339 0.38 98.339 118.178 98.339 220.434 196.244 162.63"></polygon>
                    <polygon id="Shape" points="0.397 181.18 98.302 318.976 98.302 238.946"></polygon>
                    <polygon id="Shape" points="98.302 238.946 98.302 318.976 196.28 181.18"></polygon>
                </g>
                <path d="M839.13,296.184 C820.5,289.031 800.64,282.539 779.75,276.714 C785.14,255.733 789.45,235.302 792.56,215.618 C808.73,113.156 790.86,41.281 742.21,13.232 C728.074,5.078 711.823,0.943 693.915,0.943 C637.351,0.943 565.878,42.899 493.773,113.752 C478.021,98.302 462.198,84.111 446.425,71.372 C365.67,6.146 294.401,-14.329 245.763,13.72 C214.504,31.744 195.493,68.554 190.791,120.164 C189.999,128.833 196.396,136.499 205.076,137.287 C213.783,138.09 221.429,131.689 222.22,123.02 C224.825,94.452 233.759,57.038 261.542,41.018 C297.544,20.253 357.7,40.251 426.579,95.879 C441.609,108.018 456.698,121.553 471.736,136.297 C441.493,168.435 411.398,205.423 382.499,246.304 C331.663,250.925 283.242,258.677 238.805,269.311 C231.024,239.1 225.679,210.274 223.043,183.513 C222.191,174.851 214.502,168.521 205.793,169.372 C197.12,170.224 190.78,177.938 191.634,186.6 C194.424,214.916 200.068,245.371 208.293,277.244 C188.101,282.93 168.882,289.247 150.826,296.182 C53.884,333.421 0.5,384.823 0.5,440.918 C0.5,497.013 53.884,548.415 150.822,585.651 C169.444,592.805 189.311,599.296 210.201,605.121 C204.808,626.103 200.503,646.533 197.393,666.218 C181.215,768.68 199.093,840.55 247.735,868.6 C261.875,876.76 278.125,880.89 296.034,880.89 C351.947,880.89 422.432,839.88 493.693,770.5 C508.958,785.39 524.287,799.1 539.57,811.44 C596.72,857.6 649.109,881.35 692.097,881.35 C709.852,881.34 726.014,877.29 740.23,869.09 C788.87,841.04 806.75,769.17 790.57,666.708 C787.47,647.025 783.16,626.596 777.77,605.617 C810.25,596.682 840.13,586.158 866.6,574.179 C874.54,570.586 878.06,561.247 874.46,553.318 C870.86,545.389 861.51,541.873 853.57,545.469 C828.51,556.812 800.17,566.799 769.32,575.293 C756.56,532.715 739.57,488.266 718.868,443.303 C740.5,396.814 758.18,350.829 771.35,306.841 C888.48,339.595 957.89,391.325 957.89,440.918 C957.89,472.959 929.91,499.396 906.44,515.928 C899.32,520.947 897.62,530.779 902.64,537.893 C907.66,545.008 917.51,546.704 924.63,541.688 C967.04,511.816 989.45,476.969 989.45,440.918 C989.45,384.823 936.06,333.421 839.13,296.184 Z M693.913,32.467 C706.209,32.467 717.151,35.18 726.43,40.533 C762.44,61.295 775.17,123.323 761.37,210.709 C758.42,229.427 754.32,248.869 749.19,268.855 C704.57,258.288 655.981,250.614 604.992,246.085 C576.384,205.648 546.357,168.668 515.828,136.276 C521.415,130.774 527.006,125.437 532.586,120.301 C594.136,63.659 651.428,32.467 693.913,32.467 Z M493.817,158.876 C517.63,184.224 541.16,212.499 563.933,243.149 C541.274,241.916 518.248,241.277 494.974,241.277 C470.922,241.277 447.13,241.951 423.738,243.267 C446.48,212.669 470.042,184.278 493.817,158.876 Z M493.705,725.555 C469.049,699.455 444.687,670.2 421.142,638.415 C445.369,639.832 470.03,640.559 494.974,640.559 C519.001,640.559 542.806,639.859 566.244,638.522 C542.719,670.179 518.318,699.487 493.705,725.555 Z M494.974,609.037 C461.066,609.037 428.53,607.725 397.523,605.288 C380.107,579.91 363.259,553.213 347.219,525.465 C331.432,498.156 316.909,470.601 303.754,443.181 C317.41,414.473 332.595,385.575 349.195,356.858 C365.271,329.052 382.335,302.087 400.067,276.357 C430.312,274.047 461.99,272.799 494.974,272.799 C527.111,272.799 558.006,273.984 587.544,276.18 C605.29,301.959 622.452,329.106 638.778,357.346 C655.295,385.92 670.412,414.672 684.017,443.24 C670.931,470.437 656.472,497.788 640.756,524.975 C624.712,552.729 607.679,579.645 589.983,605.334 C559.018,607.767 527.216,609.037 494.974,609.037 Z M356.911,601.356 C318.083,596.875 282.041,590.577 249.168,582.841 C259.15,549.661 271.804,515.258 286.893,480.31 C297.199,500.669 308.204,521.022 319.884,541.226 C331.81,561.858 344.185,581.934 356.911,601.356 Z M359.415,280.188 C346.556,299.77 334.001,320.097 321.862,341.097 C309.378,362.692 297.666,384.409 286.771,406.092 C270.9,369.699 257.612,333.851 247.238,299.444 C281.332,291.334 318.868,284.769 359.415,280.188 Z M32.062,440.918 C32.062,391.592 100.729,340.15 216.716,307.368 C229.835,351.084 247.438,396.934 268.909,443.223 C248.261,488.115 231.318,532.488 218.593,574.997 C101.47,542.241 32.062,490.511 32.062,440.918 Z M296.036,849.37 C283.739,849.37 272.798,846.66 263.518,841.3 C227.512,820.54 214.774,758.51 228.575,671.127 C231.531,652.409 235.624,632.966 240.756,612.981 C283.928,623.205 330.813,630.72 379.993,635.297 C409.348,676.921 440.21,714.907 471.587,748.04 C466.844,752.66 462.099,757.17 457.363,761.53 C395.812,818.18 338.52,849.37 296.036,849.37 Z M759.4,671.617 C773.2,759 760.46,821.03 724.455,841.79 C688.446,862.55 628.297,842.56 559.418,786.93 C544.914,775.22 530.351,762.2 515.837,748.06 C546.896,715.319 577.829,677.44 607.5,635.461 C656.804,630.94 703.916,623.488 747.19,613.376 C752.34,633.395 756.44,652.869 759.4,671.617 Z M738.71,583.033 C704.913,590.878 668.623,597.05 630.69,601.41 C643.493,581.902 655.996,561.654 668.087,540.738 C679.695,520.657 690.628,500.472 700.867,480.306 C716.006,515.317 728.701,549.787 738.71,583.033 Z M701.012,406.203 C690.172,384.644 678.523,363.056 666.111,341.585 C653.869,320.406 641.158,299.812 628.074,279.91 C668.8,284.42 706.508,290.929 740.78,298.994 C730.355,333.654 717,369.652 701.012,406.203 Z" id="Shape" fill="#EC407A"></path>
            </g>
        </g>
    </g>
</svg>