<svg width="128" height="128" xmlns="http://www.w3.org/2000/svg">

 <title/>
 <g>
  <title>background</title>
  <rect fill="none" id="canvas_background" height="402" width="582" y="-1" x="-1"/>
 </g>
 <g>
  <title>Layer 1</title>
  <circle fill="#2175aa" id="svg_1" r="10" cy="64" cx="64" class="cls-1"/>
  <path fill="#4d91bb" id="svg_2" d="m59.34,68.18c-3.92,-3.18 -2.22,-10 2.66,-11a10.64,10.64 0 0 0 -2.66,11z" class="cls-2"/>
  <path fill="#4d91bb" id="svg_3" d="m54.55,64.55a10,10 0 0 1 16.78,-7.33a10,10 0 1 0 -14.11,14.11a10,10 0 0 1 -2.67,-6.78z" class="cls-2"/>
  <path fill="#1d6694" id="svg_4" d="m70.47,56.39a10,10 0 0 1 -14.08,14.09a10,10 0 1 0 14.08,-14.09z" class="cls-3"/>
  <path fill="#2c8df4" id="svg_5" d="m64,114c-23.82,0 -23.83,-100 0,-100a2,2 0 0 1 0,4c-6.62,0 -14,18.89 -14,46s7.38,46 14,46a2,2 0 0 1 0,4z" class="cls-4"/>
  <path fill="#75acff" id="svg_6" d="m31.93,93.75c-10.14,0 -13.27,-5.88 -10.5,-7.49a2,2 0 0 1 2.73,0.73c3.32,5.74 23.36,2.69 46.84,-10.87s36.15,-29.39 32.84,-35.12a2,2 0 0 1 3.46,-2c9.52,16.48 -46.73,54.75 -75.37,54.75z" class="cls-5"/>
  <path fill="#63adf2" id="svg_7" d="m103.84,87c3.31,-5.73 -9.36,-21.57 -32.84,-35.12s-43.53,-16.61 -46.84,-10.88a2,2 0 0 1 -3.46,-2c11.91,-20.63 98.52,29.36 86.6,50a2,2 0 0 1 -3.46,-2z" class="cls-6"/>
  <path fill="#496abc" id="svg_8" d="m107.57,80.68a30,30 0 0 0 -4.94,-8.39a5,5 0 0 0 -1.63,3.71a5,5 0 0 0 0.1,1a27.54,27.54 0 0 1 1.72,2.84a4.84,4.84 0 0 0 4.75,0.84z" class="cls-7"/>
  <path fill="#47a6ff" id="svg_9" d="m20.7,39a2,2 0 0 1 3.46,2c-3.31,5.73 9.36,21.57 32.84,35.12s43.53,16.61 46.84,10.88a2,2 0 0 1 3.46,2c-11.82,20.47 -98.56,-29.29 -86.6,-50z" class="cls-6"/>
  <path fill="#1988ff" id="svg_10" d="m64,114a2,2 0 0 1 0,-4c6.62,0 14,-18.89 14,-46s-7.38,-46 -14,-46a2,2 0 0 1 0,-4c23.82,0 23.83,100 0,100z" class="cls-4"/>
  <path fill="#385caa" id="svg_11" d="m72,26.89c0.44,1 0.86,2.13 1.26,3.31a4.94,4.94 0 0 0 4.74,1.61a50.82,50.82 0 0 0 -3.53,-9.17a5,5 0 0 0 -2.47,4.25z" class="cls-8"/>
  <path fill="#75aaff" id="svg_12" d="m20.7,89c-11.91,-20.63 74.68,-70.64 86.6,-50a2,2 0 0 1 -3.46,2c-3.31,-5.74 -23.36,-2.68 -46.84,10.88s-36.15,29.39 -32.84,35.12a2,2 0 0 1 -3.46,2z" class="cls-5"/>
  <path fill="#2c64a0" id="svg_13" d="m26.42,73a5,5 0 0 0 -1.87,0.37a33,33 0 0 0 -3.09,4.93a5,5 0 0 0 2.63,4.09a27.08,27.08 0 0 1 5.16,-8.52a5,5 0 0 0 -2.83,-0.87z" class="cls-9"/>
  <path fill="#e86866" id="svg_14" d="m30.42,76a5,5 0 1 1 -5,-5a5,5 0 0 1 5,5zm72.58,-5a5,5 0 1 0 5,5a5,5 0 0 0 -5,-5zm-28,-50.1a5,5 0 1 0 5,5a5,5 0 0 0 -5,-5z" class="cls-10"/>
  <path fill="#ba3b38" id="svg_15" d="m78.2,22.09c3.91,4.65 -2.36,10.92 -7,7a5,5 0 1 0 7,-7z" class="cls-11"/>
  <path fill="#ba3b38" id="svg_16" d="m28.62,72.19c3.91,4.65 -2.36,10.92 -7,7a5,5 0 1 0 7,-7z" class="cls-11"/>
  <path fill="#ba3b38" id="svg_17" d="m106.2,72.15c3.91,4.65 -2.36,10.92 -7,7a5,5 0 1 0 7,-7z" class="cls-11"/>
  <path fill="#dd6966" id="svg_18" d="m29.07,72.6a5,5 0 1 0 -7,7c-4.39,-4.6 2.32,-11.35 7,-7z" class="cls-12"/>
  <path fill="#dd6966" id="svg_19" d="m78.65,22.51a5,5 0 1 0 -7,7c-4.39,-4.62 2.35,-11.36 7,-7z" class="cls-12"/>
  <path fill="#dd6966" id="svg_20" d="m106.65,72.56a5,5 0 1 0 -7,7c-4.39,-4.61 2.35,-11.35 7,-7z" class="cls-12"/>
 </g>
</svg>