<svg version="1" xmlns="http://www.w3.org/2000/svg" width="682.667" height="682.667" viewBox="0 0 512.000000 512.000000"><path d="M248.5 56.7c-4.7 1.3-12.3 5.4-16.3 8.8-14.4 12.4-28.9 43.1-35.8 75.2-1 4.6-2.2 8.3-2.8 8.3-.6 0-3-.7-5.3-1.5-7.2-2.5-31.3-8.2-40.3-9.6-11.9-1.8-31-1.5-39 .6-23.9 6.2-34.8 23.4-29 46.1 2.8 10.9 12.3 28.6 19.8 37 .9 1.1 4.3 5 7.6 8.7 6.1 7.1 10.6 11.7 19.9 20.4l5.6 5.3-5.1 4.7c-6.2 5.9-19.9 19.9-20.8 21.2-.3.6-2.6.9-5 .7-6.5-.5-12.4 1.9-16.5 6.7-5.5 6.4-6.6 14.4-3.1 21.9 1.6 3.4 1.6 3.8-1 11.4-7 20.8-1 38.3 16 46.3 9.7 4.6 19 6.1 34.6 5.6 15.2-.5 17.4-.8 31.5-3.6 10.3-2.1 17.8-4 25.3-6.5 2.3-.8 4.6-1.4 5.1-1.4.7 0 1.9 4.2 3.5 12.5 2.2 10.9 10.3 34 15.6 44.5 8.1 16 18.2 27.5 28.7 32.6 4.9 2.4 7.1 2.8 14.3 2.9 7.3 0 9.3-.4 14-2.7 18.9-9.3 34.2-35.6 44.1-76 1.9-7.6 3.9-13.8 4.5-13.8.6 0 4.8 1.1 9.5 2.5 22.4 6.8 39.5 9.6 57.4 9.6 23.9 0 40.3-8.7 46-24.3 2.7-7.3 2.5-18.3-.4-27-2.1-6.3-2.1-6.9-.6-9.8 2.5-4.9 2.7-13 .4-17.7-4.2-8.6-12.6-14.1-21.1-13.9-3.7.1-4.6-.3-8.2-4.3-2.3-2.4-8.2-8.4-13.2-13.3l-9.1-8.9 11.2-11.2c11.2-11.3 15.9-16.5 20.5-22.6 1.4-1.9 3-3.9 3.5-4.5 2.2-2.4 8.6-12.7 11.9-19.5 13.8-27.3 5.9-51-19.4-58.6-15.1-4.5-38.5-3.7-61.2 2-3.5.8-7.2 1.7-8.3 1.9-1.2.2-6 1.6-10.8 3.1-4.8 1.5-8.9 2.6-9.1 2.4-.1-.2-1.7-6.4-3.5-13.7l-3.2-13.2 2.9-2.5c6.2-5.2 8.6-15.6 5.3-23-3.7-8.2-13.5-14.9-21.1-14.4-3.7.3-4.1 0-8.9-6.3-9.7-12.8-19.4-18.8-31.5-19.3-3.9-.2-8-.1-9.1.2zm17.9 19.2c4.5 3.1 8.7 7.9 12.4 14 1.7 2.9 1.9 3.7.8 6.5-1.4 3.3-1.2 8.2.4 13.2 1.2 3.5 9 12 12 12.9 1.2.4 2.5 2.8 3.9 7.3 3.9 13 6.4 24.3 5.5 25.1-.5.4-4.7 2.2-9.2 4-4.6 1.8-14.6 6.1-22.3 9.6l-13.8 6.3-13.8-6.3c-7.6-3.4-17.6-7.7-22.3-9.5-4.7-1.8-8.9-3.7-9.4-4.1-2.1-1.8 8.7-37.5 16.1-52.9 12.8-26.7 26.1-35.4 39.7-26.1zm-120.1 78.5c10.8 1.4 42.8 9.4 44.5 11.1.3.2-.3 6.4-1.2 13.7-2.2 17.1-2.4 18.7-3.1 28.3-.4 4.4-.7 8-.8 8.1-2.1 1.1-23.6 16.6-30.1 21.7-4.9 3.8-9.5 7-10.2 7.1-3 .3-28.8-27.2-37.4-39.9-23.5-34.8-15.8-52.4 22.5-51 6.6.2 13.7.6 15.8.9zm255 .7c13.4 4.1 17.8 10.8 15.2 23.3-2.2 10.4-11.7 26.9-23.2 40.1-5.3 6.1-25.6 26.5-26.4 26.5-.3 0-4-2.6-8-5.8-5.5-4.4-31.3-23.1-32.6-23.6-.1-.1-.5-3.7-.8-8.1-.4-4.4-.8-9.1-1-10.5-1.2-12.4-1.8-17.6-2.1-18.1-.2-.4-.6-3.6-1-7.1l-.6-6.5 6.8-2.1c31.2-9.4 59.3-12.5 73.7-8.1zm-184.7 19.5c13.5 5.4 20.4 8.6 20.4 9.4 0 .7-4.3 3.2-17.5 10.4-1.1.6-4.6 2.8-7.7 4.8-5.8 3.8-9.4 5.1-9.2 3.3.1-.6.5-3.8.8-7.1.8-9 2.6-21.3 3.5-24.2.2-.4.9-.2 9.7 3.4zm89-2c0 1.1 1.5 11.3 1.9 13.6.2.9.7 4.8 1 8.5.4 3.7.9 7.6 1.1 8.6.4 1.3-1.5.5-7.3-2.9-4.3-2.6-12.2-7.2-17.5-10.2-5.4-3-9.8-5.8-9.8-6.3s1-1.4 2.3-1.9c1.2-.5 7.6-3.1 14.2-5.9 11.7-4.8 13.9-5.4 14.1-3.5zm-43.3 23c7.9 4 32.2 18 40.8 23.6 7 4.4 7.7 5.2 8.1 8.6.3 2 .5 16.2.4 31.5l-.1 27.8-2.5 1.9c-4.3 3.2-32 19.5-42.7 25.2l-10.2 5.3-10.3-5.3c-10.7-5.6-38.5-21.9-42.8-25.2l-2.5-1.9-.1-27.8c-.1-15.3.1-29.5.3-31.6.5-3.6 1.1-4.1 13.2-11.6 14.6-9.1 40-23.1 41.9-23.1.7 0 3.6 1.2 6.5 2.6zM343 247c5.8 4.4 10.5 8.5 10.5 9 0 1.3-24 20-25.7 20-.3 0-.5-9.2-.4-20.4v-20.4l2.6 1.8c1.4 1 7.2 5.5 13 10zm-158.3 9c0 11-.2 20-.6 20-.6 0-16.2-11.6-23.1-17.2l-3.4-2.6 3.4-2.9c5.3-4.4 22.4-17.3 23.1-17.3.3 0 .6 9 .6 20zm-25.6 21.2c7.4 5.7 16.5 12.3 20.2 14.7 5.8 3.8 6.7 4.7 6.8 7.5.2 5.4 1.4 17.6 2.9 28.6.5 4.1 1.3 10.1 1.6 13.2l.7 5.6-6.9 2.1c-7.6 2.2-21.5 5.7-25.4 6.4-1.4.3-4.1.8-6 1.1-1.9.3-4.8.9-6.5 1.2-1.6.3-8.7.7-15.8.9-28.5.8-40-8.2-34.8-27.2 1.4-5.1 3.4-7.3 6-6.6 5.2 1.3 14.9-4.4 18.1-10.7 2.8-5.5 3.1-9.9 1-15.9l-1.7-5.2 4.6-5.1c5.6-6.3 20.4-20.8 21.2-20.8.3 0 6.6 4.6 14 10.2zm219.7 1c14.5 14.7 14.2 14.1 12.7 19.2-3.4 11.5 5.7 24.9 18.2 26.9 4.6.7 5 1.2 6.2 6.4 3.8 16.6-1.4 23.8-19.7 27.4-5.9 1.1-23 .8-30.7-.6-1.6-.3-4.6-.8-6.5-1.1-1.9-.3-4.6-.8-6-1.1-4.2-.7-18-4.2-25.3-6.4l-6.9-2 .6-5.7c.3-3.1.8-6.6 1-7.7.2-1.1.7-4.7 1-8 .4-3.3.9-7.6 1.1-9.5.2-1.9.7-6.8 1-10.9.3-4.1.8-7.7 1-8.1.2-.4 2.3-2 4.7-3.6 6-4.1 26.6-19.6 30.8-23.3 1.9-1.7 4-3 4.5-3.1.6 0 6.1 5.1 12.3 11.2zM210 311.7c6.8 4.2 12.9 7.6 22 12.5 3 1.7 5.7 3.2 5.9 3.4.5.5-10 5.3-21.8 10-9.5 3.9-9.6 3.9-10.6-4.1-.4-2.7-.8-6.1-1-7.5-.2-1.4-.7-5-1-8-.3-3-.7-6.7-.9-8.2-.2-1.5 0-2.6.3-2.4.3.2 3.5 2.1 7.1 4.3zm99.7-3c-.3.5-.8 3.9-1.1 7.7-.6 6.4-1.2 10.8-2.1 16.1-.2 1.1-.4 2.9-.4 4-.2 4.3-1.4 4.6-7.7 2.2-11.7-4.7-23.4-10-23.4-10.6 0-.4 2.4-1.9 5.3-3.4 6.2-3.2 12.8-7 17.9-10.3 2.1-1.3 4.1-2.4 4.5-2.4.5 0 1.9-.9 3.3-2 2.5-2 4.5-2.6 3.7-1.3zm-45.6 31.9c6 3 18 8.1 35.7 15.4 2.7 1.2 2.7 1-.4 13.2-9.2 36.6-23.1 62.7-36.8 69.2-14.8 7-31.6-11.5-44-48.7-3.2-9.5-8.6-29.3-8.6-31.4 0-.5 6.4-3.5 14.3-6.7 10.6-4.3 31.3-13.6 32.3-14.5 0-.1 3.4 1.5 7.5 3.5z"/><path d="M249 215.7c-6.3 1-10.2 2.6-15.7 6.2-21.8 14.7-24.1 44.8-4.6 63.2 6.8 6.4 14 9.7 23.4 10.7 32.6 3.4 55.2-31.8 38.6-60.1-4.7-8-15-16.1-24.2-18.9-3.4-1.1-13.7-1.7-17.5-1.1z"/></svg>