<?xml version="1.0" standalone="no"?>
<!DOCTYPE svg PUBLIC "-//W3C//DTD SVG 20010904//EN"
 "http://www.w3.org/TR/2001/REC-SVG-20010904/DTD/svg10.dtd">
<svg version="1.0" xmlns="http://www.w3.org/2000/svg"
 width="1100.000000pt" height="1100.000000pt" viewBox="0 0 1100.000000 1100.000000"
 preserveAspectRatio="xMidYMid meet">
<metadata>
Created by potrace 1.11, written by Peter Selinger 2001-2013
</metadata>
<g transform="translate(0.000000,1100.000000) scale(0.100000,-0.100000)"
fill="#000000" stroke="none">
<path d="M0 5500 l0 -5500 5500 0 5500 0 0 5500 0 5500 -5500 0 -5500 0 0
-5500z m7699 4375 c559 -119 856 -672 827 -1540 -10 -331 -53 -634 -142 -1023
-20 -85 -33 -159 -31 -166 3 -6 29 -18 58 -25 98 -25 432 -138 579 -196 80
-31 235 -101 345 -155 332 -163 540 -304 736 -500 175 -174 277 -335 336 -527
24 -79 26 -104 26 -238 0 -122 -4 -165 -21 -230 -28 -101 -116 -279 -184 -370
-75 -100 -247 -269 -361 -355 -83 -62 -105 -74 -146 -78 -66 -6 -123 25 -151
83 -24 50 -25 72 -4 125 13 31 37 56 98 103 44 34 121 100 170 147 287 275
365 550 236 828 -45 97 -97 169 -195 271 -240 250 -613 468 -1128 660 -165 61
-462 154 -478 149 -6 -2 -35 -80 -66 -173 -109 -339 -264 -739 -407 -1053 -31
-68 -56 -129 -56 -136 0 -7 19 -53 41 -102 124 -268 294 -708 399 -1031 38
-117 67 -190 74 -188 6 3 86 27 177 54 187 56 375 124 559 201 135 57 187 65
237 35 46 -27 67 -64 71 -125 7 -102 -25 -129 -290 -236 -124 -50 -487 -173
-621 -210 -69 -19 -67 8 -13 -232 92 -408 130 -713 130 -1072 1 -288 -11 -408
-61 -610 -177 -727 -721 -1018 -1452 -774 -417 140 -884 447 -1386 912 l-119
110 -76 -71 c-318 -304 -674 -573 -982 -746 -680 -380 -1253 -378 -1609 6
-170 185 -278 452 -331 823 -19 140 -16 584 6 775 24 211 68 462 117 675 23
102 38 185 33 189 -5 4 -78 29 -162 55 -707 216 -1225 488 -1558 820 -170 170
-273 333 -331 523 -23 78 -26 106 -27 238 -1 164 12 231 75 379 102 240 366
512 702 722 287 180 734 373 1160 500 70 21 127 43 127 50 0 6 -18 92 -41 190
-47 207 -94 474 -110 636 -11 103 -11 117 6 152 10 21 35 49 56 63 69 45 171
22 213 -48 9 -16 26 -104 41 -213 32 -233 105 -601 140 -703 3 -9 13 -9 37 -2
214 61 984 186 1324 215 l82 6 43 62 c199 285 522 685 793 981 l55 60 -47 48
c-59 62 -272 252 -377 338 -382 314 -767 532 -1083 615 -134 35 -319 43 -425
20 -307 -68 -488 -328 -557 -795 -21 -144 -26 -157 -70 -194 -57 -49 -136 -47
-195 4 -51 45 -59 82 -45 198 71 586 341 968 765 1083 109 29 375 32 510 5
474 -96 1022 -427 1613 -976 l133 -123 97 94 c626 604 1273 975 1797 1032 66
7 243 -4 314 -19z"/>
<path d="M7320 9573 c-306 -53 -718 -267 -1105 -573 -196 -155 -505 -433 -505
-454 0 -7 14 -25 31 -42 119 -112 465 -528 681 -819 82 -110 157 -209 166
-221 15 -17 34 -22 107 -28 335 -26 814 -103 1326 -212 25 -6 25 -5 57 133
107 460 149 810 139 1158 -14 532 -160 871 -432 1006 -135 67 -286 84 -465 52z"/>
<path d="M5398 8228 c-79 -88 -206 -235 -309 -358 -83 -99 -299 -382 -299
-391 0 -5 18 -6 43 -2 23 5 337 8 699 8 436 0 654 3 649 10 -71 95 -237 306
-310 395 -139 169 -371 430 -382 430 -4 0 -44 -42 -91 -92z"/>
<path d="M5150 7179 c-162 -4 -358 -12 -435 -18 -77 -6 -145 -11 -152 -11 -30
0 -354 -508 -586 -917 -156 -275 -387 -728 -387 -760 0 -19 205 -418 331 -644
162 -291 365 -624 532 -870 l72 -106 105 -7 c577 -36 1189 -36 1724 0 l99 7
142 216 c259 394 484 783 688 1188 l112 223 -78 157 c-222 447 -472 881 -762
1324 l-122 186 -44 6 c-159 22 -829 36 -1239 26z m849 -904 c437 -724 481
-800 465 -812 -39 -29 -951 -563 -961 -563 -12 0 -941 546 -962 565 -12 11 60
135 449 782 559 925 510 847 519 837 5 -5 225 -369 490 -809z m-979 -1280
l483 -284 46 27 c25 15 242 142 481 283 239 141 436 256 438 254 5 -5 -953
-1348 -963 -1352 -6 -1 -215 286 -465 639 -250 352 -468 658 -483 679 -16 22
-27 39 -24 39 2 0 222 -128 487 -285z"/>
<path d="M3990 7094 c-349 -46 -970 -162 -970 -181 0 -3 28 -89 61 -192 77
-234 159 -454 256 -690 88 -212 72 -208 160 -36 133 261 307 564 505 882 76
122 138 225 138 228 0 7 -27 5 -150 -11z"/>
<path d="M6841 7089 c211 -322 479 -782 649 -1112 36 -70 68 -127 71 -127 8 0
155 361 232 570 90 244 169 492 160 501 -29 26 -790 160 -1053 185 l-74 7 15
-24z"/>
<path d="M2680 6830 c-14 -5 -99 -32 -190 -60 -466 -146 -915 -366 -1195 -585
-99 -77 -247 -231 -298 -307 -85 -129 -127 -254 -127 -378 0 -282 222 -571
644 -837 123 -78 437 -234 601 -298 178 -70 582 -205 615 -205 5 0 26 53 46
118 92 294 240 685 388 1024 l78 176 -76 172 c-152 343 -266 638 -379 978 -38
116 -72 212 -76 211 -3 0 -17 -4 -31 -9z"/>
<path d="M3352 4957 c-138 -337 -321 -862 -305 -877 11 -10 321 -74 533 -110
191 -32 533 -80 538 -75 2 2 -32 59 -75 127 -173 270 -370 608 -523 898 -50
96 -95 178 -98 182 -4 4 -35 -62 -70 -145z"/>
<path d="M7503 5007 c-136 -266 -367 -667 -538 -937 -113 -176 -116 -183 -84
-176 13 3 80 12 149 21 293 38 883 145 903 164 9 9 -109 369 -190 581 -68 178
-173 433 -182 442 -3 4 -30 -39 -58 -95z"/>
<path d="M2917 3623 c-85 -361 -125 -650 -134 -963 -14 -521 75 -856 282
-1066 130 -132 253 -179 455 -177 196 2 377 52 625 173 323 157 694 428 1044
763 l83 79 -65 67 c-155 159 -449 513 -653 786 -98 131 -193 261 -199 272 -1
1 -86 12 -191 23 -346 38 -648 86 -959 151 -104 22 -204 42 -220 45 l-31 6
-37 -159z"/>
<path d="M7855 3744 c-287 -64 -726 -133 -1075 -169 -85 -9 -158 -19 -161 -23
-3 -4 -50 -67 -103 -141 -197 -272 -441 -574 -643 -796 -54 -60 -113 -126
-132 -147 l-34 -39 29 -31 c54 -57 309 -281 429 -377 237 -188 447 -326 660
-431 238 -117 415 -169 605 -177 208 -9 356 43 485 173 109 109 178 245 231
451 77 305 69 794 -21 1284 -39 215 -97 459 -109 458 -6 -1 -78 -17 -161 -35z"/>
<path d="M4766 3517 c45 -79 408 -524 612 -749 l106 -118 29 28 c126 119 712
831 696 846 -2 2 -96 0 -209 -6 -204 -10 -1069 -4 -1184 8 -51 6 -57 5 -50 -9z"/>
</g>
</svg>
